<svg xmlns="http://www.w3.org/2000/svg" viewBox="0 0 960 640" width="960" height="640">
<rect width="960" height="640" fill="#f5f6f4"/>
<rect x="18" y="18" width="924" height="604" rx="16" fill="#eef1ef" stroke="#d5dad7"/>
<polygon points="319.79,403.35 653.18,403.35 653.18,357.04 319.79,357.04" fill="#173c69" stroke="#153653" stroke-width="2.2"/>
<polygon points="668.92,368.16 672.00,387.62 680.95,405.17 694.88,419.10 712.44,428.05 731.90,431.13 751.36,428.05 768.91,419.10 782.84,405.17 791.79,387.62 794.87,368.16 791.79,348.70 782.84,331.14 768.91,317.21 751.36,308.26 731.90,305.18 712.44,308.26 694.88,317.21 680.95,331.14 672.00,348.70" fill="#1f4f88" stroke="#153653" stroke-width="2.2"/>
<polygon points="668.92,368.16 672.00,387.62 680.95,405.17 694.88,419.10 712.44,428.05 731.90,431.13 751.36,428.05 768.91,419.10 782.84,405.17 791.79,387.62 794.87,368.16 791.79,348.70 782.84,331.14 768.91,317.21 751.36,308.26 731.90,305.18 712.44,308.26 694.88,317.21 680.95,331.14 672.00,348.70" fill="#668bb7" stroke="#153653" stroke-width="2.2"/>
<polygon points="174.76,364.82 178.01,385.31 187.43,403.80 202.09,418.47 220.58,427.89 241.07,431.13 261.56,427.89 280.04,418.47 294.71,403.80 304.13,385.31 307.38,364.82 304.13,344.33 294.71,325.85 280.04,311.18 261.56,301.76 241.07,298.51 220.58,301.76 202.09,311.18 187.43,325.85 178.01,344.33" fill="#244874" stroke="#153653" stroke-width="2.2"/>
<polygon points="174.76,364.82 178.01,385.31 187.43,403.80 202.09,418.47 220.58,427.89 241.07,431.13 261.56,427.89 280.04,418.47 294.71,403.80 304.13,385.31 307.38,364.82 304.13,344.33 294.71,325.85 280.04,311.18 261.56,301.76 241.07,298.51 220.58,301.76 202.09,311.18 187.43,325.85 178.01,344.33" fill="#7a9abe" stroke="#153653" stroke-width="2.2"/>
<polygon points="56.78,392.23 143.83,394.09 801.35,395.94 838.40,395.94 903.22,394.09 903.22,336.67 801.35,297.77 731.90,279.25 56.78,264.43" fill="#4977ad" stroke="#153653" stroke-width="2.2"/>
<polygon points="162.35,282.96 254.96,297.77 560.57,290.37 632.80,288.51 632.80,266.29 560.57,238.50 453.14,211.65 384.61,210.72 254.96,227.39 162.35,240.36" fill="#315f9b" stroke="#153653" stroke-width="2.2"/>
<text x="38" y="50" font-family="ui-sans-serif,system-ui,sans-serif" font-size="18" font-weight="650" fill="#28323b">DIREITA</text>
<text x="38" y="76" font-family="ui-sans-serif,system-ui,sans-serif" font-size="12" fill="#66717a">material neutro · volumes globais · sem detalhe</text>
</svg>
